<svg xmlns="http://www.w3.org/2000/svg" viewBox="0 0 320 900">
  <g fill="none" stroke="#c9a24a" stroke-width="3.2" stroke-linecap="round" stroke-linejoin="round" opacity="1">
    <!-- stem -->
    <path d="M150 20 C120 150, 170 260, 140 390 C110 520, 170 610, 140 760 C120 840, 160 880, 150 900"/>
    <!-- leaves left -->
    <path d="M140 110 C80 90, 40 120, 30 170 C60 185, 95 175, 140 140"/>
    <path d="M135 210 C70 210, 30 255, 28 310 C65 320, 105 300, 135 260"/>
    <path d="M130 330 C70 350, 38 410, 45 470 C85 468, 115 435, 135 390"/>
    <path d="M132 470 C78 500, 52 565, 64 625 C104 615, 122 575, 140 535"/>
    <path d="M130 610 C72 650, 55 715, 78 780 C118 760, 132 715, 142 670"/>
    <path d="M138 760 C90 800, 85 860, 120 900 C155 870, 158 820, 150 790"/>
    <!-- leaves right (smaller) -->
    <path d="M160 150 C210 120, 255 135, 285 175 C265 205, 225 210, 175 180"/>
    <path d="M155 270 C215 250, 260 280, 282 330 C255 355, 215 355, 170 320"/>
    <path d="M150 410 C210 395, 255 430, 272 485 C238 505, 205 500, 165 460"/>
    <path d="M148 555 C205 545, 245 585, 252 640 C215 650, 190 635, 160 600"/>
    <path d="M148 690 C200 695, 230 735, 226 790 C190 788, 170 770, 152 740"/>
    <!-- veins (light sketch) -->
    <g opacity=".35">
      <path d="M95 150 C110 155, 125 150, 140 140"/>
      <path d="M85 275 C105 280, 120 275, 135 260"/>
      <path d="M90 430 C110 425, 122 410, 135 390"/>
      <path d="M105 585 C120 575, 130 555, 140 535"/>
      <path d="M110 735 C125 715, 135 690, 142 670"/>
      <path d="M210 175 C215 185, 230 190, 175 180"/>
      <path d="M210 315 C225 320, 240 318, 170 320"/>
      <path d="M205 455 C220 458, 235 455, 165 460"/>
    </g>
  </g>
</svg>
