<svg xmlns="http://www.w3.org/2000/svg" viewBox="0 0 320 900">
  <g fill="none" stroke="#c9a24a" stroke-width="3.2" stroke-linecap="round" stroke-linejoin="round" opacity="1">
    <!-- stem -->
    <path d="M170 20 C200 150, 150 260, 180 390 C210 520, 150 610, 180 760 C200 840, 160 880, 170 900"/>
    <!-- leaves right -->
    <path d="M180 110 C240 90, 280 120, 290 170 C260 185, 225 175, 180 140"/>
    <path d="M185 210 C250 210, 290 255, 292 310 C255 320, 215 300, 185 260"/>
    <path d="M190 330 C250 350, 282 410, 275 470 C235 468, 205 435, 185 390"/>
    <path d="M188 470 C242 500, 268 565, 256 625 C216 615, 198 575, 180 535"/>
    <path d="M190 610 C248 650, 265 715, 242 780 C202 760, 188 715, 178 670"/>
    <path d="M182 760 C230 800, 235 860, 200 900 C165 870, 162 820, 170 790"/>
    <!-- leaves left (smaller) -->
    <path d="M160 150 C110 120, 65 135, 35 175 C55 205, 95 210, 145 180"/>
    <path d="M165 270 C105 250, 60 280, 38 330 C65 355, 105 355, 150 320"/>
    <path d="M170 410 C110 395, 65 430, 48 485 C82 505, 115 500, 155 460"/>
    <path d="M172 555 C115 545, 75 585, 68 640 C105 650, 130 635, 160 600"/>
    <path d="M172 690 C120 695, 90 735, 94 790 C130 788, 150 770, 168 740"/>
    <!-- veins (light sketch) -->
    <g opacity=".35">
      <path d="M225 150 C210 155, 195 150, 180 140"/>
      <path d="M235 275 C215 280, 200 275, 185 260"/>
      <path d="M230 430 C210 425, 198 410, 185 390"/>
      <path d="M215 585 C200 575, 190 555, 180 535"/>
      <path d="M210 735 C195 715, 185 690, 178 670"/>
      <path d="M110 175 C105 185, 90 190, 145 180"/>
      <path d="M110 315 C95 320, 80 318, 150 320"/>
      <path d="M115 455 C100 458, 85 455, 155 460"/>
    </g>
  </g>
</svg>
